<svg xmlns="https://www.w3.org/2000/svg" width="996" height="920" viewBox="0 0 996 920">
  <path fill="#D51900" fill-rule="evenodd" d="M8358.95103,5135.63752 C8360.90137,5135.63752 8361.6377,5136.38422 8361.6377,5137.84429 C8361.6377,5138.91101 8361.43862,5140.38442 8361.08043,5142.72454 C8360.35735,5146.49806 8357.29256,5159.58539 8357.29256,5174.99283 C8357.29256,5188.7802 8359.11684,5202.94091 8360.7023,5217.45498 C8378.76596,5199.32073 8393.91077,5190.03359 8400.77669,5190.03359 C8401.84471,5190.03359 8403.11839,5190.24694 8403.11839,5191.09365 C8403.11839,5192.24037 8401.84471,5193.87379 8400.22609,5195.70055 C8396.10654,5200.58079 8393.58572,5207.64115 8393.58572,5216.17491 C8393.58572,5227.40881 8399.50964,5237.20264 8409.61945,5237.20264 C8419.37104,5237.20264 8424.58516,5228.34219 8424.58516,5219.44174 C8424.58516,5217.67573 8424.58516,5215.89918 8424.35223,5214.2432 L8424.25351,5213.62812 L8421.8919,5213.62812 C8413.57321,5213.62812 8404.21964,5209.64125 8404.21964,5200.04077 C8404.21964,5194.23381 8408.17334,5190.76696 8413.80538,5190.57362 C8419.54356,5190.43361 8426.7677,5195.70055 8430.1708,5205.83439 C8436.63472,5204.56477 8441.90844,5202.86529 8447.48406,5199.47126 L8448.06198,5199.11405 L8448.06198,5180.2531 C8448.06198,5157.0586 8457.61456,5137.46427 8470.04618,5137.46427 C8476.74625,5137.46427 8481.06481,5142.87788 8481.06481,5152.69171 C8481.06481,5169.50887 8474.24118,5184.89865 8463.12856,5197.5234 L8462.66946,5198.04067 L8462.66983,5223.21425 C8462.67311,5225.72159 8462.70595,5227.05546 8463.03433,5227.05546 C8463.7574,5227.05546 8465.74753,5223.09526 8468.07597,5218.72171 C8471.51887,5212.18138 8475.82417,5205.09435 8479.06806,5199.83409 C8481.42967,5196.04723 8485.01189,5190.03359 8491.52622,5190.03359 C8496.16257,5190.03359 8499.54546,5193.3671 8499.65005,5201.60488 L8499.65254,5202.00087 L8499.65254,5232.49574 C8499.65254,5233.39578 8499.86482,5233.74914 8500.18327,5233.74914 C8500.56802,5233.57579 8500.95275,5233.20915 8501.2712,5232.64908 C8502.71449,5230.66888 8507.98577,5222.51573 8513.60236,5213.53116 L8514.14687,5212.65927 L8514.14687,5212.65927 L8514.69282,5211.78326 C8515.05712,5211.19813 8515.42193,5210.61096 8515.7863,5210.02321 L8516.34031,5209.12853 C8516.43255,5208.9794 8516.52474,5208.83029 8516.61684,5208.6812 L8517.16849,5207.78726 C8519.55405,5203.9168 8521.86921,5200.0997 8523.8458,5196.74727 C8526.88405,5191.52034 8530.69845,5190.03359 8534.67869,5190.03359 C8539.30198,5190.03359 8542.67181,5193.3671 8542.77599,5201.60488 L8542.77847,5202.00087 L8542.77847,5225.21537 C8542.77847,5226.33541 8542.9642,5227.05546 8543.16989,5227.05546 C8543.34236,5227.05546 8543.87302,5226.70878 8544.40376,5225.58872 C8547.8334,5219.07506 8555.031,5205.83439 8560.99473,5196.74727 C8564.27842,5191.66701 8567.655,5190.03359 8571.6286,5190.03359 C8576.29108,5190.03359 8579.66151,5193.3671 8579.7657,5201.60488 L8579.76819,5202.00087 L8579.76819,5233.74914 C8579.76819,5234.85583 8579.96719,5235.03587 8580.30551,5235.03587 C8580.4979,5235.03587 8581.03521,5234.46253 8581.40008,5233.94248 C8585.18794,5230.13562 8602.49535,5202.00087 8605.75252,5192.38038 C8606.64144,5189.88025 8607.19204,5188.61352 8608.43918,5188.61352 C8609.73161,5188.61352 8610.2747,5190.33279 8610.87592,5192.08418 L8611.02174,5192.50427 C8611.071,5192.64393 8611.12104,5192.78293 8611.17228,5192.92041 C8613.1823,5197.83399 8617.12937,5204.18097 8620.38676,5211.45472 C8627.04043,5205.47442 8635.16008,5199.46745 8642.02602,5195.83393 C8647.26004,5193.12713 8654.86231,5190.03364 8661.68843,5190.03364 C8662.76968,5190.03364 8664.04342,5190.24698 8664.04342,5191.09369 C8664.04342,5192.76711 8662.76968,5193.87383 8661.12456,5195.70059 C8656.99174,5200.58084 8654.48417,5207.64119 8654.48417,5216.17495 C8654.48417,5227.40886 8660.41478,5237.20268 8670.51127,5237.20268 C8680.26284,5237.20268 8685.51013,5228.34223 8685.51013,5219.44179 C8685.51013,5217.45502 8685.69544,5214.88156 8685.34402,5213.0748 C8684.57455,5213.28143 8683.52644,5213.28143 8682.47166,5213.28143 C8678.81648,5213.28143 8676.28904,5213.07476 8673.57578,5211.98804 C8668.74645,5210.14128 8665.13768,5205.9944 8665.13768,5200.04077 C8665.13768,5194.23381 8669.0715,5190.76696 8674.69693,5190.57362 C8680.26259,5190.43361 8686.96267,5195.12052 8690.5383,5204.36765 C8692.90655,5203.28093 8695.95137,5201.48751 8699.41422,5198.92071 C8700.71178,5198.00866 8701.91495,5197.0225 8703.09684,5196.05033 L8703.68635,5195.56582 C8707.2168,5192.67066 8710.66529,5190.03359 8716.0052,5190.03359 C8722.93695,5190.03359 8724.79202,5195.1486 8724.84664,5201.6976 L8724.8479,5202.00087 L8724.8479,5225.21537 C8724.8479,5226.49539 8724.9873,5227.05546 8725.37212,5227.05546 C8725.75685,5227.05546 8726.28082,5225.97544 8726.67232,5225.21537 C8730.0754,5218.72171 8736.3708,5205.83439 8742.52028,5196.74727 C8745.96319,5191.66701 8749.19382,5190.03359 8753.14091,5190.03359 C8757.93398,5190.03359 8761.7243,5193.3671 8761.84158,5201.60488 L8761.84437,5202.00087 L8761.84437,5233.74914 C8761.84437,5234.85586 8762.35524,5235.72923 8763.09816,5235.72923 C8765.075,5235.72923 8766.1762,5234.15582 8767.24425,5233.02243 C8772.64405,5227.05546 8773.56619,5225.40871 8775.17817,5225.40871 C8776.61101,5225.40871 8778.0572,5226.33543 8778.0572,5227.96884 C8778.0572,5228.49553 8777.88441,5229.02225 8777.54634,5229.76227 C8770.31553,5242.08956 8766.17611,5250.09663 8757.85079,5250.09663 C8750.00561,5250.09663 8746.41926,5244.98125 8746.31695,5237.20731 L8746.3147,5236.86262 L8746.3147,5208.54119 C8746.3147,5206.19441 8745.96302,5205.64105 8745.22677,5205.64105 C8744.68277,5205.64105 8743.94644,5206.75444 8743.04425,5208.20784 C8740.60189,5212.30609 8736.10699,5220.73655 8731.63526,5229.56716 L8731.02582,5230.77345 C8730.61988,5231.5788 8730.21491,5232.38598 8729.81248,5233.19204 L8729.21091,5234.39991 C8727.61285,5237.61669 8726.06775,5240.79184 8724.67544,5243.7363 C8723.0436,5247.17648 8720.13802,5250.09663 8716.0052,5250.09663 C8711.57777,5250.09663 8709.78318,5247.46346 8709.71823,5241.88825 L8709.7164,5241.56953 L8709.7164,5205.9944 C8709.7164,5203.64095 8708.95352,5202.36755 8707.3216,5202.36755 C8706.08108,5202.36755 8704.42269,5203.28093 8702.30653,5204.91435 C8699.75255,5206.93445 8696.4821,5209.46124 8692.73401,5211.11466 C8692.81853,5211.65635 8692.8923,5212.10762 8692.95542,5212.5614 L8692.99201,5212.8347 C8693.1568,5214.11847 8693.2382,5215.56755 8693.2382,5219.22173 C8693.2382,5237.20264 8681.90111,5250.09663 8665.66174,5250.09663 C8648.87844,5250.09663 8640.20811,5235.55589 8640.20811,5220.32179 C8640.20811,5212.36806 8642.73555,5206.19441 8645.8004,5201.84752 C8639.30592,5203.47427 8630.45654,5210.54796 8623.06654,5217.82167 C8624.69179,5222.16188 8625.94558,5226.70878 8625.94558,5231.049 C8625.94558,5242.08956 8618.37653,5250.09663 8610.09098,5250.09663 C8605.18202,5250.09663 8600.54504,5246.08309 8600.54504,5239.36275 C8600.54504,5233.02243 8604.83043,5227.05546 8609.20869,5221.7952 C8607.57016,5217.99501 8605.56014,5214.5415 8603.77567,5211.62802 C8598.54828,5220.55513 8589.86473,5234.46251 8583.91426,5242.29624 C8580.69027,5246.44978 8577.43974,5250.09663 8572.35167,5250.09663 C8568.62862,5250.09663 8564.41035,5247.97662 8564.28144,5239.94365 L8564.27841,5239.56276 L8564.27841,5208.73454 C8564.27841,5206.36109 8564.07942,5205.47437 8563.37623,5205.47437 C8562.81236,5205.47437 8561.9168,5206.75444 8560.99472,5208.20784 C8558.45954,5212.57374 8553.64109,5221.4569 8548.9452,5230.61136 L8548.32002,5231.83319 C8546.23991,5235.90883 8544.20513,5240.00079 8542.4269,5243.7363 C8540.78837,5247.17648 8538.0818,5250.09663 8533.92908,5250.09663 C8529.50819,5250.09663 8527.70733,5247.46346 8527.64214,5241.88825 L8527.6403,5241.56953 L8527.6403,5209.08122 C8527.6403,5206.75443 8527.24229,5206.36109 8526.53911,5206.36109 C8525.84256,5206.36109 8524.92709,5207.30113 8524.20403,5208.54119 C8521.39879,5213.43838 8515.59468,5222.86481 8509.12336,5232.72136 L8508.35909,5233.88269 C8507.59202,5235.04551 8506.81699,5236.21206 8506.03778,5237.37566 L8505.25732,5238.53803 C8503.82445,5240.66634 8502.38181,5242.77727 8500.95279,5244.82969 C8498.55802,5248.10319 8496.23621,5250.09663 8492.61419,5250.09663 C8488.87807,5250.09663 8484.63389,5247.97662 8484.50418,5239.94365 L8484.50113,5239.56276 L8484.50113,5208.54119 C8484.50113,5206.36109 8484.16281,5205.47437 8483.82449,5205.47437 C8482.34516,5205.47437 8480.54078,5209.25456 8477.30353,5215.07486 C8475.78376,5217.80076 8473.90177,5221.19958 8472.00251,5224.68231 L8471.40257,5225.78423 L8470.55991,5227.33844 C8467.76274,5232.51118 8465.12002,5237.53996 8463.75744,5240.50281 C8460.70592,5247.17648 8458.54332,5250.09663 8454.33753,5250.09663 C8451.35609,5250.09663 8448.19655,5248.32601 8448.0662,5243.84594 L8448.06202,5243.55629 L8448.06202,5207.10779 C8443.04029,5210.14128 8437.77311,5211.62802 8431.98849,5212.71474 C8432.18749,5214.88152 8432.35335,5216.90162 8432.35335,5219.22173 C8432.35335,5237.20264 8420.4458,5250.09663 8404.76365,5250.09663 C8387.96704,5250.09663 8379.29675,5235.55589 8379.29675,5220.32179 C8379.29675,5216.54826 8380.04636,5212.54806 8381.13429,5208.73454 C8379.25891,5209.39861 8373.2594,5214.7153 8367.55574,5220.30797 L8366.89919,5220.95425 C8366.68095,5221.16992 8366.46339,5221.38575 8366.24677,5221.60149 L8365.6,5222.24819 C8364.20587,5223.64771 8362.8621,5225.03292 8361.63775,5226.33543 C8362.36083,5234.66252 8362.71242,5243.01627 8362.71242,5251.35002 C8362.71242,5279.2981 8349.19287,5317 8331.16902,5317 C8322.50536,5317 8319.77889,5308.08622 8319.77889,5296.31896 C8319.77889,5279.99147 8327.34798,5261.68388 8336.92046,5246.2631 C8332.23041,5241.72954 8328.25017,5237.56266 8325.02618,5233.20911 C8322.16704,5232.64906 8319.24819,5232.32238 8316.91312,5232.32238 C8312.02406,5232.32238 8306.23944,5233.57578 8300.64721,5235.03586 C8300.30225,5243.90297 8298.48461,5250.09662 8295.42645,5250.09662 C8293.41642,5250.09662 8292.89237,5247.72983 8292.89237,5244.64301 C8292.89237,5242.4829 8292.5275,5239.90943 8292.5275,5237.00262 C8289.29687,5237.74263 8286.05961,5238.28936 8283.18056,5238.28936 C8267.45862,5238.28936 8255.0071,5233.57578 8255.0071,5224.14864 C8255.0071,5219.22173 8258.27089,5214.34148 8269.11705,5214.34148 C8278.28487,5214.34148 8285.2901,5217.08162 8291.43956,5223.25527 C8290.19905,5214.70817 8286.76278,5211.11465 8285.48911,5209.25456 C8284.9451,5208.35451 8284.9451,5207.98782 8284.9451,5207.64114 C8284.9451,5206.98318 8286.8197,5205.98424 8288.84499,5204.96718 L8289.29684,5204.741 C8291.27369,5203.64094 8293.05153,5202.94091 8294.53748,5202.94091 C8295.04164,5202.94091 8295.579,5203.10091 8295.96374,5203.47426 C8299.16168,5207.04172 8300.98476,5217.4344 8301.05,5225.16219 L8301.05181,5225.58871 L8301.05181,5229.23556 C8304.42175,5228.49552 8309.85477,5227.05546 8315.60622,5227.05546 C8317.08554,5227.05546 8318.67101,5227.05546 8320.68766,5227.40881 C8315.27454,5218.53504 8312.20975,5208.35452 8312.20975,5194.04713 C8312.20975,5159.04536 8344.33029,5135.63752 8358.95103,5135.63752 Z M7829.75559,5135.63752 C7831.69928,5135.63752 7832.46879,5136.38422 7832.46879,5137.84429 C7832.46879,5138.91101 7832.24325,5140.38442 7831.87839,5142.72454 C7831.15531,5146.49806 7828.1237,5159.58539 7828.1237,5174.99283 C7828.1237,5188.7802 7829.94134,5202.94091 7831.54004,5217.45498 C7849.59706,5199.32073 7864.73524,5190.03359 7871.58789,5190.03359 C7872.68246,5190.03359 7873.95613,5190.24694 7873.95613,5191.09365 C7873.95613,5192.24037 7872.68246,5193.87379 7871.04392,5195.70055 C7866.89121,5200.58079 7864.39029,5207.64115 7864.39029,5216.17491 C7864.39029,5227.40881 7870.36065,5237.20264 7880.45719,5237.20264 C7890.17561,5237.20264 7895.40299,5228.34219 7895.40299,5219.44174 C7895.40299,5217.65366 7895.40299,5215.85476 7895.14668,5214.18116 L7895.0514,5213.62812 L7892.70305,5213.62812 C7884.42415,5213.62812 7875.03742,5209.64125 7875.03742,5200.04077 C7875.03742,5194.23381 7879.0243,5190.76696 7884.60326,5190.57362 C7890.35471,5190.43361 7897.58548,5195.70055 7901.00185,5205.83439 C7907.46576,5204.56477 7912.7457,5202.86529 7918.31573,5199.47126 L7918.89304,5199.11405 L7918.89304,5180.2531 C7918.89304,5157.0586 7928.43234,5137.46427 7940.91039,5137.46427 C7947.57066,5137.46427 7951.88259,5142.87788 7951.88259,5152.69171 C7951.88259,5169.50887 7945.02669,5184.89865 7933.94503,5197.5234 L7933.48725,5198.04067 L7933.48759,5223.21425 C7933.4907,5225.72159 7933.52175,5227.05546 7933.83225,5227.05546 C7934.56196,5227.05546 7936.55871,5223.09526 7938.91368,5218.72171 C7942.33006,5212.18138 7946.64198,5205.09435 7949.90578,5199.83409 C7952.27402,5196.04723 7955.86288,5190.03359 7962.37056,5190.03359 C7966.96006,5190.03359 7970.34811,5193.36542 7970.45451,5201.59865 L7970.45709,5202.00087 L7970.45709,5232.49574 C7970.45709,5233.39578 7970.66277,5233.74914 7971.02096,5233.74914 C7971.37915,5233.57579 7971.74402,5233.20915 7972.10889,5232.64908 C7973.63531,5230.54298 7979.50319,5221.454 7985.50057,5211.8087 L7986.05442,5210.91697 L7986.60826,5210.02321 C7987.0696,5209.27787 7987.53017,5208.53158 7987.98805,5207.78726 L7988.5361,5206.89521 C7990.72216,5203.3323 7992.82869,5199.84182 7994.64368,5196.74727 C7997.72837,5191.52034 8001.49633,5190.03359 8005.47657,5190.03359 C8010.09987,5190.03359 8013.50826,5193.3671 8013.61364,5201.60488 L8013.61616,5202.00087 L8013.61616,5225.21537 C8013.61616,5226.33541 8013.76207,5227.05546 8013.94121,5227.05546 C8014.12695,5227.05546 8014.67092,5226.70878 8015.22151,5225.58872 C8018.63789,5219.07506 8025.88856,5205.83439 8031.83238,5196.74727 C8035.07628,5191.66701 8038.49265,5190.03359 8042.47953,5190.03359 C8047.06249,5190.03359 8050.45044,5193.36542 8050.55684,5201.59865 L8050.55942,5202.00087 L8050.55942,5233.74918 C8050.55942,5234.85587 8050.76501,5235.03591 8051.15643,5235.03591 C8051.3289,5235.03591 8051.853,5234.46257 8052.21118,5233.94252 C8054.21875,5231.92488 8060.03142,5223.07354 8065.5338,5213.76671 L8066.15517,5212.7115 C8070.80215,5204.788 8075.11349,5196.70964 8076.57026,5192.38042 C8077.45254,5189.8803 8078.00978,5188.61356 8079.29009,5188.61356 C8080.48691,5188.61356 8081.05217,5190.19804 8081.61761,5191.87432 L8081.8309,5192.50431 C8081.87884,5192.64397 8081.92734,5192.78297 8081.97675,5192.92045 C8083.9735,5197.83403 8087.94048,5204.18102 8091.18438,5211.45472 C8097.87118,5205.47442 8105.97096,5199.46745 8112.86342,5195.83393 C8118.08416,5193.12713 8125.63999,5190.03364 8132.51254,5190.03364 C8133.6071,5190.03364 8134.84761,5190.24698 8134.84761,5191.09369 C8134.84761,5192.76711 8133.6071,5193.87383 8131.94204,5195.70059 C8127.82249,5200.58084 8125.3083,5207.64119 8125.3083,5216.17495 C8125.3083,5227.40886 8131.23886,5237.20268 8141.36857,5237.20268 C8151.10026,5237.20268 8156.33427,5228.34223 8156.33427,5219.44179 C8156.33427,5217.45502 8156.50673,5214.88156 8156.122,5213.0748 C8155.42546,5213.28143 8154.3508,5213.28143 8153.26286,5213.28143 C8149.63421,5213.28143 8147.10013,5213.07476 8144.40683,5211.98804 C8139.55756,5210.14128 8135.92891,5205.9944 8135.92891,5200.04077 C8135.92891,5194.23381 8139.89589,5190.76696 8145.50803,5190.57362 C8151.10027,5190.43361 8157.76716,5195.12052 8161.39582,5204.36765 C8163.73089,5203.28093 8166.78904,5201.48751 8170.21869,5198.92071 C8171.40957,5198.08467 8172.52148,5197.18635 8173.61034,5196.29362 L8174.20232,5195.80763 C8177.8429,5192.81919 8181.33788,5190.03359 8186.81628,5190.03359 C8193.76111,5190.03359 8195.61644,5195.1486 8195.67107,5201.6976 L8195.67233,5202.00087 L8195.67233,5225.21537 C8195.67233,5226.49539 8195.83151,5227.05546 8196.20965,5227.05546 C8196.56125,5227.05546 8197.0787,5225.97544 8197.46343,5225.21537 C8200.87981,5218.72171 8207.19512,5205.83439 8213.33132,5196.74727 C8216.75433,5191.66701 8220.01813,5190.03359 8223.97846,5190.03359 C8228.77154,5190.03359 8232.52328,5193.3671 8232.63935,5201.60488 L8232.64212,5202.00087 L8232.64212,5233.74914 C8232.64212,5234.85586 8233.1927,5235.72923 8233.90916,5235.72923 C8235.91255,5235.72923 8236.97395,5234.15582 8238.06851,5233.02243 C8243.46837,5227.05546 8244.37056,5225.40871 8246.00909,5225.40871 C8247.46188,5225.40871 8248.86823,5226.33543 8248.86823,5227.96884 C8248.86823,5228.49553 8248.71573,5229.02225 8248.37073,5229.76227 C8241.10016,5242.08956 8236.97397,5250.09663 8228.65527,5250.09663 C8220.86415,5250.09663 8217.2333,5244.98346 8217.1282,5237.21235 L8217.12584,5236.86262 L8217.12584,5208.54119 C8217.12584,5206.19441 8216.75433,5205.64105 8216.03128,5205.64105 C8215.51384,5205.64105 8214.7775,5206.75444 8213.86868,5208.20784 C8211.4263,5212.30609 8206.94527,5220.73655 8202.46897,5229.56716 L8201.85879,5230.77345 C8201.65553,5231.17612 8201.45248,5231.57925 8201.24982,5231.98248 L8200.64321,5233.19204 C8198.82807,5236.81929 8197.06036,5240.42378 8195.47997,5243.7363 C8193.86797,5247.17648 8190.95576,5250.09663 8186.81631,5250.09663 C8182.40844,5250.09663 8180.56948,5247.46346 8180.50288,5241.88825 L8180.501,5241.56953 L8180.501,5205.9944 C8180.501,5203.64095 8179.79119,5202.36755 8178.17256,5202.36755 C8176.88562,5202.36755 8175.27362,5203.28093 8173.11765,5204.91435 C8170.58357,5206.93445 8167.3264,5209.46124 8163.55181,5211.11466 C8163.61102,5211.49384 8163.66596,5211.82872 8163.71631,5212.15117 L8163.75834,5212.42525 L8163.75834,5212.42525 L8163.79808,5212.6977 C8163.98454,5214.01778 8164.08914,5215.43704 8164.08914,5219.22173 C8164.08914,5237.20264 8152.71228,5250.09663 8136.47291,5250.09663 C8119.6763,5250.09663 8111.03254,5235.55589 8111.03254,5220.32179 C8111.03254,5212.36806 8113.54672,5206.19441 8116.65131,5201.84752 C8110.12366,5203.47427 8101.26763,5210.54796 8093.91081,5217.82167 C8095.52281,5222.16188 8096.76332,5226.70878 8096.76332,5231.049 C8096.76332,5242.08956 8089.19423,5250.09663 8080.90869,5250.09663 C8076.0329,5250.09663 8071.34285,5246.08309 8071.34285,5239.36275 C8071.34285,5233.02243 8075.68131,5227.05546 8080.01977,5221.7952 C8078.36797,5217.99501 8076.40439,5214.5415 8074.58675,5211.62802 C8069.3461,5220.55513 8060.67581,5234.46251 8054.75852,5242.29624 C8051.51462,5246.44978 8048.23092,5250.09663 8043.22245,5250.09663 C8039.46674,5250.09663 8035.20939,5247.97662 8035.07929,5239.94365 L8035.07623,5239.56276 L8035.07623,5208.73454 C8035.07623,5206.36109 8034.91037,5205.47437 8034.16077,5205.47437 C8033.62344,5205.47437 8032.71462,5206.75444 8031.83233,5208.20784 C8029.44538,5212.28268 8025.09029,5220.29255 8020.69532,5228.78534 L8020.06741,5230.00151 L8019.75364,5230.61136 L8019.75364,5230.61136 L8019.12725,5231.83319 C8019.02303,5232.03697 8018.91892,5232.2408 8018.81495,5232.44461 L8018.1929,5233.66707 C8016.43615,5237.1284 8014.73305,5240.56112 8013.21145,5243.7363 C8011.59945,5247.17648 8008.89951,5250.09663 8004.77333,5250.09663 C8000.3264,5250.09663 7998.50588,5247.46346 7998.43998,5241.88825 L7998.43812,5241.56953 L7998.43812,5209.08122 C7998.43812,5206.75443 7998.07327,5206.36109 7997.37009,5206.36109 C7996.64038,5206.36109 7995.74485,5207.30113 7995.01511,5208.54119 C7991.84087,5214.11055 7984.77512,5225.53778 7977.23705,5236.79364 L7976.4557,5237.95719 C7974.8902,5240.28206 7973.30953,5242.59069 7971.74397,5244.82969 C7969.39563,5248.10319 7967.03402,5250.09663 7963.42527,5250.09663 C7959.73487,5250.09663 7955.47853,5247.97662 7955.34844,5239.94365 L7955.34538,5239.56276 L7955.34538,5208.54119 C7955.34538,5206.36109 7954.96065,5205.47437 7954.62233,5205.47437 C7953.16954,5205.47437 7951.36516,5209.25456 7948.09473,5215.07486 C7946.55011,5217.85421 7944.6326,5221.33312 7942.70237,5224.88727 L7942.09281,5226.01141 C7939.04714,5231.63731 7936.06426,5237.28696 7934.56192,5240.50281 C7931.52366,5247.17648 7929.36106,5250.09663 7925.18845,5250.09663 C7922.18102,5250.09663 7919.0273,5248.32601 7918.8972,5243.84594 L7918.89304,5243.55629 L7918.89304,5207.10779 C7913.85803,5210.14128 7908.57094,5211.62802 7902.82613,5212.71474 C7902.9854,5214.88152 7903.17113,5216.90162 7903.17113,5219.22173 C7903.17113,5237.20264 7891.28348,5250.09663 7875.56152,5250.09663 C7858.79808,5250.09663 7850.12116,5235.55589 7850.12116,5220.32179 C7850.12116,5216.54826 7850.84423,5212.54806 7851.9189,5208.73454 C7850.17754,5209.3642 7844.6836,5214.17681 7839.26048,5219.44143 L7838.61029,5220.07511 C7838.50206,5220.18101 7838.39393,5220.28703 7838.28591,5220.39314 L7837.63949,5221.03064 C7835.81345,5222.83866 7834.03979,5224.65581 7832.46879,5226.33543 C7833.1786,5234.66252 7833.51028,5243.01627 7833.51028,5251.35002 C7833.51028,5279.2981 7819.99074,5317 7801.94035,5317 C7793.30322,5317 7790.57013,5308.08622 7790.57013,5296.31896 C7790.57013,5279.99147 7798.19892,5261.68388 7807.71169,5246.2631 C7792.04281,5230.84899 7783.00104,5218.86839 7783.00104,5194.04713 C7783.00104,5159.04536 7815.12157,5135.63752 7829.75559,5135.63752 Z M8348.6489,5241.38285 C8338.36661,5254.61686 8328.06445,5273.12445 8328.43591,5294.86555 C8328.61502,5301.53922 8331.86555,5305.39275 8335.64678,5305.39275 C8345.59738,5305.55943 8351.36209,5285.2384 8351.36209,5267.85752 C8351.36209,5260.43715 8350.04861,5250.98334 8348.6489,5241.38285 Z M7819.43351,5241.38285 C7809.17112,5254.61686 7798.88883,5273.12445 7799.25369,5294.86555 C7799.4129,5301.53922 7802.63689,5305.39275 7806.47119,5305.39275 C7816.40189,5305.55943 7822.15997,5285.2384 7822.15997,5267.85752 C7822.15997,5260.43715 7820.89293,5250.98334 7819.43351,5241.38285 Z M8082.87898,5229.02223 C8080.90875,5231.7557 8078.57368,5236.10925 8078.57368,5238.83606 C8078.57368,5241.38285 8080.01983,5243.01627 8081.43945,5243.01627 C8083.43621,5243.01627 8084.52414,5240.10945 8084.52414,5237.20264 C8084.52414,5234.66252 8083.97353,5232.14238 8082.87898,5229.02223 Z M8612.08774,5229.02223 C8610.09098,5231.7557 8607.72274,5236.10925 8607.72274,5238.83606 C8607.72274,5241.38285 8609.20869,5243.01627 8610.63495,5243.01627 C8612.61843,5243.01627 8613.69973,5240.10945 8613.69973,5237.20264 C8613.69973,5234.66252 8613.1823,5232.14238 8612.08774,5229.02223 Z M7825.21812,5141.8445 C7815.67218,5141.8445 7797.09109,5163.22557 7797.09109,5194.04713 C7797.09109,5215.57413 7802.72553,5228.20631 7811.75728,5239.38454 L7812.07006,5239.76943 L7817.84804,5231.94237 C7815.85129,5219.07506 7813.48305,5206.36109 7813.48305,5196.74727 C7813.48305,5180.59978 7816.75348,5167.19244 7820.18312,5157.77863 C7823.42038,5148.69817 7825.94783,5143.63792 7825.94783,5142.5312 C7825.94783,5142.00451 7825.78862,5141.8445 7825.21812,5141.8445 Z M8354.42688,5141.8445 C8344.88094,5141.8445 8326.26005,5163.22557 8326.26005,5194.04713 C8326.26005,5215.57413 8331.93339,5228.20631 8340.94039,5239.38454 L8341.25229,5239.76943 L8347.04353,5231.94237 C8345.07332,5219.07506 8342.66527,5206.36109 8342.66527,5196.74727 C8342.66527,5180.59978 8345.9357,5167.19244 8349.33881,5157.77863 C8352.60924,5148.69817 8355.11016,5143.63792 8355.11016,5142.5312 C8355.11016,5142.00451 8354.95094,5141.8445 8354.42688,5141.8445 Z M8273.97296,5221.0618 C8270.36421,5221.0618 8269.11707,5222.5352 8269.11707,5225.06867 C8269.11707,5229.0222 8274.31792,5231.75567 8281.3762,5231.75567 C8284.59357,5231.75567 8286.44438,5231.75567 8289.48263,5231.39568 C8284.42109,5225.06867 8279.75757,5221.0618 8273.97296,5221.0618 Z M8146.56282,5198.7807 C8145.1631,5198.7807 8144.04863,5199.66075 8144.04863,5201.3075 C8144.04863,5204.52099 8147.67065,5206.58109 8151.98257,5206.58109 C8152.71228,5206.58109 8153.80024,5206.36109 8154.5233,5206.36109 C8152.50664,5201.3075 8148.93106,5198.7807 8146.56282,5198.7807 Z M8675.76499,5198.7807 C8674.30552,5198.7807 8673.25073,5199.66075 8673.25073,5201.3075 C8673.25073,5204.52099 8676.85291,5206.58109 8681.14492,5206.58109 C8681.90111,5206.58109 8682.98277,5206.36109 8683.68563,5206.36109 C8681.70879,5201.3075 8678.09342,5198.7807 8675.76499,5198.7807 Z M8414.84693,5198.7807 C8413.42068,5198.7807 8412.31948,5199.66075 8412.31948,5201.3075 C8412.31948,5204.91435 8415.92823,5206.36109 8422.60176,5206.36109 C8420.65808,5201.3075 8417.19527,5198.7807 8414.84693,5198.7807 Z M7885.69787,5198.7807 C7884.23845,5198.7807 7883.17042,5199.66075 7883.17042,5201.3075 C7883.17042,5204.91435 7886.7659,5206.36109 7893.42617,5206.36109 C7891.43605,5201.3075 7888.00641,5198.7807 7885.69787,5198.7807 Z M8469.52216,5144.0046 C8467.89345,5144.0046 8462.77331,5148.07549 8462.67107,5174.38865 L8462.66952,5175.19285 L8462.66952,5188.43351 C8468.24185,5180.77979 8472.76606,5166.83909 8472.76606,5156.18522 C8472.76606,5145.81803 8472.4012,5144.0046 8469.52216,5144.0046 Z M7940.3532,5144.0046 C7938.74419,5144.0046 7933.59174,5148.07549 7933.48885,5174.38865 L7933.48729,5175.19285 L7933.48729,5188.43351 C7939.07289,5180.77979 7943.59046,5166.83909 7943.59046,5156.18522 C7943.59046,5145.81803 7943.24552,5144.0046 7940.3532,5144.0046 Z M8278.72831,4397 C8465.739,4397 8617.34111,4548.60212 8617.34111,4735.6128 C8617.34111,4922.62349 8465.739,5074.22561 8278.72831,5074.22561 C8091.71762,5074.22561 7940.11551,4922.62349 7940.11551,4735.6128 C7940.11551,4548.60212 8091.71762,4397 8278.72831,4397 Z M8421.94885,4566.76139 C8394.54233,4566.7768 8334.32432,4610.54386 8334.32432,4676.04098 C8334.32432,4701.715 8340.34158,4721.15849 8350.72237,4738.25403 C8346.49651,4737.8549 8342.10233,4737.74762 8338.99415,4737.90105 C8329.80771,4738.36143 8321.0651,4740.31039 8313.17991,4742.0138 C8313.16553,4739.80396 8313.12237,4737.5174 8313.03605,4735.13875 C8312.39298,4717.58282 8309.40722,4700.3952 8303.58908,4693.71966 C8302.42551,4692.39985 8300.22079,4692.44585 8298.04657,4693.12111 C8296.44346,4693.62361 8294.18731,4694.60764 8291.96593,4695.67575 L8291.2664,4696.01538 C8288.24708,4697.49521 8285.42845,4699.05417 8284.57299,4699.67388 C8282.67543,4701.03969 8282.55171,4702.58965 8283.94575,4704.58464 C8284.24176,4705.00921 8284.53934,4705.43454 8284.83754,4705.86255 L8285.28519,4706.50684 C8289.31609,4712.32797 8293.3742,4718.8166 8295.13808,4730.74973 C8288.983,4723.59845 8277.54581,4716.33974 8260.24445,4713.9611 C8240.96797,4711.30624 8218.52217,4714.1606 8196.35187,4727.09737 C8194.11651,4700.97831 8189.24801,4671.63658 8189.06386,4640.45333 C8188.91079,4612.93778 8194.25433,4588.1385 8195.77008,4580.63426 C8196.51961,4576.96655 8197.03896,4573.28348 8197.01019,4570.8588 C8196.99494,4568.09648 8195.75469,4566.76139 8192.06486,4566.76139 C8164.6582,4566.79209 8104.4412,4610.54379 8104.45558,4676.04091 C8104.45558,4720.31438 8122.36939,4746.03444 8149.606,4773.18176 C8132.12092,4799.42358 8121.58691,4830.26922 8118.96873,4861.42178 C8116.99362,4885.05477 8123.6692,4905.11209 8141.33799,4906.18634 C8173.32255,4908.15064 8199.09089,4835.96262 8199.09089,4783.35622 C8199.10628,4770.18927 8198.494,4757.39063 8197.37618,4741.12377 C8207.28236,4734.26406 8217.47944,4730.12063 8227.15588,4727.86475 C8226.86527,4729.12312 8226.71134,4730.42752 8226.69695,4731.82404 C8226.54388,4748.64336 8246.89214,4757.60552 8269.49101,4758.58763 C8280.08631,4759.04801 8286.51688,4758.43416 8297.15793,4756.53125 C8297.1421,4761.043 8297.34207,4766.03047 8297.67871,4770.80312 C8298.16857,4777.84698 8299.08729,4780.99292 8302.59354,4780.99292 C8305.28826,4780.99292 8307.50836,4778.13855 8309.07001,4773.64214 C8310.89204,4768.37843 8312.20883,4761.54942 8312.80587,4753.10907 C8321.38002,4750.81838 8329.80848,4748.30857 8341.40379,4747.74578 L8342.27942,4747.70725 C8346.78711,4747.5384 8352.26833,4747.90666 8358.17841,4749.22647 C8364.56309,4757.7282 8372.03481,4765.8156 8380.36396,4774.08714 C8362.17452,4802.36997 8350.84451,4831.72706 8348.83876,4861.42174 C8347.24633,4885.08541 8353.53923,4905.11205 8371.22327,4906.18629 C8403.19258,4908.15059 8428.96178,4835.96257 8428.97617,4783.35618 C8428.97617,4768.9155 8428.24146,4754.91986 8426.90928,4736.30506 C8440.61246,4722.27873 8455.96937,4709.66424 8472.36741,4699.55116 C8478.49214,4695.79137 8479.48695,4693.05977 8477.71095,4689.63759 C8475.91956,4686.21544 8470.88231,4686.64513 8465.50812,4689.88315 C8454.62208,4696.40525 8440.12261,4707.19354 8425.60774,4720.5293 C8423.20392,4696.09833 8419.10048,4669.05851 8418.93216,4640.4534 C8418.77909,4612.93785 8424.10738,4588.13857 8425.63838,4580.63433 C8426.38935,4576.96662 8426.9087,4573.28355 8426.89431,4570.85887 C8426.86367,4568.09655 8425.63881,4566.76139 8421.94885,4566.76139 Z M8403.30882,4764.02015 C8406.06483,4781.00826 8408.1838,4797.99639 8408.03993,4814.2479 C8407.65711,4859.85648 8391.74906,4885.17748 8377.24959,4884.94735 C8370.02287,4884.82458 8364.75515,4878.73217 8364.43433,4862.74155 C8363.86794,4833.49189 8378.88791,4797.02958 8403.30882,4764.02015 Z M8173.33953,4763.34483 C8176.14142,4780.54779 8178.32168,4797.78145 8178.17782,4814.24782 C8177.795,4859.8564 8161.88695,4885.1774 8147.38747,4884.94726 C8140.16076,4884.83984 8134.51467,4878.76278 8134.57178,4862.74146 C8134.69464,4835.1185 8146.7444,4794.55877 8173.33953,4763.34483 Z M8414.99115,4578.45515 C8415.31341,4578.94623 8415.11488,4580.03574 8414.79262,4580.95656 C8413.50648,4584.63963 8409.55626,4593.90866 8404.39658,4608.18053 C8398.0119,4625.82854 8391.3051,4650.93475 8391.74964,4681.1512 C8392.02528,4701.25459 8396.26639,4723.7673 8400.35443,4746.7711 C8398.0119,4749.56408 8395.7305,4752.40311 8393.55643,4755.27282 C8391.82632,4757.55939 8390.12671,4759.84597 8388.48839,4762.13253 C8370.193,4738.15855 8360.5861,4714.69597 8360.39579,4677.18206 L8360.3929,4676.04095 C8360.39233,4640.59152 8373.60566,4611.4493 8387.92142,4594.5379 C8396.8476,4583.99514 8406.72315,4578.22502 8413.21501,4577.90274 C8414.19559,4577.8566 8414.71493,4578.02545 8414.99115,4578.45515 Z M8185.12846,4578.45511 C8185.46654,4578.94619 8185.25075,4580.03569 8184.92993,4580.95652 C8183.64378,4584.63958 8179.70882,4593.92398 8174.53374,4608.18049 C8168.14906,4625.84384 8161.44241,4650.9347 8161.88695,4681.16651 C8162.16259,4701.43869 8166.48024,4724.1816 8170.59892,4747.41559 C8166.17395,4751.86596 8162.02477,4756.5772 8158.12045,4761.48799 C8139.97661,4737.4867 8130.52964,4713.86907 8130.52964,4676.0563 C8130.52964,4640.59148 8143.74297,4611.44926 8158.05873,4594.53786 C8166.98506,4583.99509 8176.8606,4578.22497 8183.35246,4577.9027 C8184.33289,4577.85656 8184.85368,4578.02541 8185.12846,4578.45511 Z M8262.27063,4726.85186 C8272.86578,4727.15878 8286.23232,4732.82149 8294.69929,4744.82214 C8288.89639,4745.92674 8284.04286,4746.20359 8277.94907,4746.06517 C8263.32716,4745.74291 8251.53794,4741.47669 8252.25726,4733.08238 C8252.64008,4728.81616 8256.52901,4726.68301 8262.27063,4726.85186 Z" transform="translate(-7783 -4397)"/>
</svg>
